<mxfile host="app.diagrams.net" modified="2024-03-06T03:45:48.571Z" agent="Mozilla/5.0 (Windows NT 10.0; Win64; x64) AppleWebKit/537.36 (KHTML, like Gecko) Chrome/122.0.0.0 Safari/537.36 Edg/122.0.0.0" etag="L2Uby_j0-P7EM0fTwBbf" version="24.0.1" type="device">
  <diagram name="Halaman-1" id="v3sp4KgdtK7L2kJeuTXG">
    <mxGraphModel dx="1386" dy="751" grid="1" gridSize="10" guides="1" tooltips="1" connect="1" arrows="1" fold="1" page="1" pageScale="1" pageWidth="827" pageHeight="1169" math="0" shadow="0">
      <root>
        <mxCell id="0" />
        <mxCell id="1" parent="0" />
        <mxCell id="rupFjZM4O3jsdLpP_PdN-1" value="Account Service" style="swimlane;whiteSpace=wrap;html=1;" parent="1" vertex="1">
          <mxGeometry x="160" y="110" width="200" height="430" as="geometry" />
        </mxCell>
        <mxCell id="rupFjZM4O3jsdLpP_PdN-7" value="" style="edgeStyle=orthogonalEdgeStyle;rounded=0;orthogonalLoop=1;jettySize=auto;html=1;startArrow=classic;startFill=1;" parent="rupFjZM4O3jsdLpP_PdN-1" source="rupFjZM4O3jsdLpP_PdN-3" target="rupFjZM4O3jsdLpP_PdN-4" edge="1">
          <mxGeometry relative="1" as="geometry" />
        </mxCell>
        <mxCell id="rupFjZM4O3jsdLpP_PdN-3" value="API&lt;br&gt;Main.py" style="rounded=0;whiteSpace=wrap;html=1;" parent="rupFjZM4O3jsdLpP_PdN-1" vertex="1">
          <mxGeometry x="40" y="60" width="120" height="60" as="geometry" />
        </mxCell>
        <mxCell id="rupFjZM4O3jsdLpP_PdN-4" value="Controller" style="rounded=0;whiteSpace=wrap;html=1;" parent="rupFjZM4O3jsdLpP_PdN-1" vertex="1">
          <mxGeometry x="40" y="190" width="120" height="60" as="geometry" />
        </mxCell>
        <mxCell id="rupFjZM4O3jsdLpP_PdN-6" value="Model&lt;br&gt;SQLAlchemy" style="rounded=0;whiteSpace=wrap;html=1;" parent="rupFjZM4O3jsdLpP_PdN-1" vertex="1">
          <mxGeometry x="40" y="330" width="120" height="60" as="geometry" />
        </mxCell>
        <mxCell id="rupFjZM4O3jsdLpP_PdN-9" value="" style="edgeStyle=orthogonalEdgeStyle;rounded=0;orthogonalLoop=1;jettySize=auto;html=1;startArrow=classic;startFill=1;exitX=0.5;exitY=1;exitDx=0;exitDy=0;" parent="rupFjZM4O3jsdLpP_PdN-1" source="rupFjZM4O3jsdLpP_PdN-4" target="rupFjZM4O3jsdLpP_PdN-6" edge="1">
          <mxGeometry relative="1" as="geometry">
            <mxPoint x="110" y="120" as="sourcePoint" />
            <mxPoint x="110" y="150" as="targetPoint" />
          </mxGeometry>
        </mxCell>
        <mxCell id="rupFjZM4O3jsdLpP_PdN-10" value="&lt;br&gt;&lt;br&gt;Account&lt;br&gt;Transaksi&lt;br&gt;Journal" style="strokeWidth=2;html=1;shape=mxgraph.flowchart.database;whiteSpace=wrap;" parent="1" vertex="1">
          <mxGeometry x="408" y="420" width="92" height="100" as="geometry" />
        </mxCell>
        <mxCell id="rupFjZM4O3jsdLpP_PdN-23" value="" style="edgeStyle=orthogonalEdgeStyle;rounded=0;orthogonalLoop=1;jettySize=auto;html=1;" parent="1" source="rupFjZM4O3jsdLpP_PdN-11" target="rupFjZM4O3jsdLpP_PdN-18" edge="1">
          <mxGeometry relative="1" as="geometry" />
        </mxCell>
        <mxCell id="rupFjZM4O3jsdLpP_PdN-25" value="Consume" style="edgeLabel;html=1;align=center;verticalAlign=middle;resizable=0;points=[];" parent="rupFjZM4O3jsdLpP_PdN-23" vertex="1" connectable="0">
          <mxGeometry x="-0.333" y="2" relative="1" as="geometry">
            <mxPoint x="-2" y="2" as="offset" />
          </mxGeometry>
        </mxCell>
        <mxCell id="rupFjZM4O3jsdLpP_PdN-11" value="Kafka" style="sketch=0;points=[[0,0,0],[0.25,0,0],[0.5,0,0],[0.75,0,0],[1,0,0],[0,1,0],[0.25,1,0],[0.5,1,0],[0.75,1,0],[1,1,0],[0,0.25,0],[0,0.5,0],[0,0.75,0],[1,0.25,0],[1,0.5,0],[1,0.75,0]];outlineConnect=0;fontColor=#232F3E;fillColor=#8C4FFF;strokeColor=#ffffff;dashed=0;verticalLabelPosition=bottom;verticalAlign=top;align=center;html=1;fontSize=12;fontStyle=0;aspect=fixed;shape=mxgraph.aws4.resourceIcon;resIcon=mxgraph.aws4.managed_streaming_for_kafka;" parent="1" vertex="1">
          <mxGeometry x="419" y="295.5" width="69" height="69" as="geometry" />
        </mxCell>
        <mxCell id="rupFjZM4O3jsdLpP_PdN-12" style="edgeStyle=orthogonalEdgeStyle;rounded=0;orthogonalLoop=1;jettySize=auto;html=1;entryX=0;entryY=0.5;entryDx=0;entryDy=0;entryPerimeter=0;" parent="1" source="rupFjZM4O3jsdLpP_PdN-4" target="rupFjZM4O3jsdLpP_PdN-11" edge="1">
          <mxGeometry relative="1" as="geometry" />
        </mxCell>
        <mxCell id="rupFjZM4O3jsdLpP_PdN-21" value="Produce" style="edgeLabel;html=1;align=center;verticalAlign=middle;resizable=0;points=[];" parent="rupFjZM4O3jsdLpP_PdN-12" vertex="1" connectable="0">
          <mxGeometry x="0.265" y="-2" relative="1" as="geometry">
            <mxPoint x="-3" y="-2" as="offset" />
          </mxGeometry>
        </mxCell>
        <mxCell id="rupFjZM4O3jsdLpP_PdN-14" style="edgeStyle=orthogonalEdgeStyle;rounded=0;orthogonalLoop=1;jettySize=auto;html=1;entryX=0;entryY=0.5;entryDx=0;entryDy=0;entryPerimeter=0;" parent="1" source="rupFjZM4O3jsdLpP_PdN-6" target="rupFjZM4O3jsdLpP_PdN-10" edge="1">
          <mxGeometry relative="1" as="geometry" />
        </mxCell>
        <mxCell id="rupFjZM4O3jsdLpP_PdN-15" value="Journal Service" style="swimlane;whiteSpace=wrap;html=1;" parent="1" vertex="1">
          <mxGeometry x="550" y="240" width="200" height="290" as="geometry" />
        </mxCell>
        <mxCell id="rupFjZM4O3jsdLpP_PdN-24" value="" style="edgeStyle=orthogonalEdgeStyle;rounded=0;orthogonalLoop=1;jettySize=auto;html=1;" parent="rupFjZM4O3jsdLpP_PdN-15" source="rupFjZM4O3jsdLpP_PdN-18" target="rupFjZM4O3jsdLpP_PdN-19" edge="1">
          <mxGeometry relative="1" as="geometry" />
        </mxCell>
        <mxCell id="rupFjZM4O3jsdLpP_PdN-18" value="Go Routine&lt;br&gt;Kafka Reader" style="rounded=0;whiteSpace=wrap;html=1;" parent="rupFjZM4O3jsdLpP_PdN-15" vertex="1">
          <mxGeometry x="40" y="60" width="120" height="60" as="geometry" />
        </mxCell>
        <mxCell id="rupFjZM4O3jsdLpP_PdN-19" value="GORM" style="rounded=0;whiteSpace=wrap;html=1;" parent="rupFjZM4O3jsdLpP_PdN-15" vertex="1">
          <mxGeometry x="40" y="200" width="120" height="60" as="geometry" />
        </mxCell>
        <mxCell id="rupFjZM4O3jsdLpP_PdN-22" style="edgeStyle=orthogonalEdgeStyle;rounded=0;orthogonalLoop=1;jettySize=auto;html=1;entryX=1;entryY=0.5;entryDx=0;entryDy=0;entryPerimeter=0;" parent="1" source="rupFjZM4O3jsdLpP_PdN-19" target="rupFjZM4O3jsdLpP_PdN-10" edge="1">
          <mxGeometry relative="1" as="geometry" />
        </mxCell>
        <mxCell id="6B4RCL5bGQfkRgvZ7Rhz-2" value="" style="edgeStyle=orthogonalEdgeStyle;rounded=0;orthogonalLoop=1;jettySize=auto;html=1;" edge="1" parent="1" source="6B4RCL5bGQfkRgvZ7Rhz-1" target="rupFjZM4O3jsdLpP_PdN-3">
          <mxGeometry relative="1" as="geometry" />
        </mxCell>
        <mxCell id="6B4RCL5bGQfkRgvZ7Rhz-1" value="HTTP&#xa;protocol" style="sketch=0;outlineConnect=0;fontColor=#232F3E;gradientColor=none;strokeColor=#232F3E;fillColor=#ffffff;dashed=0;verticalLabelPosition=bottom;verticalAlign=top;align=center;html=1;fontSize=12;fontStyle=0;aspect=fixed;shape=mxgraph.aws4.resourceIcon;resIcon=mxgraph.aws4.http_protocol;" vertex="1" parent="1">
          <mxGeometry x="419" y="165" width="70" height="70" as="geometry" />
        </mxCell>
      </root>
    </mxGraphModel>
  </diagram>
</mxfile>
